<svg width="17" height="16" viewBox="0 0 17 16" fill="none" xmlns="http://www.w3.org/2000/svg">
<path d="M1.68203 6.4C1.68203 3.7528 3.83483 1.6 6.48203 1.6C9.12923 1.6 11.282 3.7528 11.282 6.4C11.282 9.0472 9.12923 11.2 6.48203 11.2C3.83483 11.2 1.68203 9.0472 1.68203 6.4ZM15.8476 14.6344L11.5316 10.3176C12.4067 9.19922 12.8821 7.82004 12.882 6.4C12.882 2.8712 10.0108 0 6.48203 0C2.95323 0 0.0820312 2.8712 0.0820312 6.4C0.0820312 9.9288 2.95323 12.8 6.48203 12.8C7.90199 12.7996 9.28102 12.3242 10.3996 11.4496L14.7164 15.7656C14.7906 15.8401 14.8787 15.8993 14.9757 15.9397C15.0728 15.98 15.1769 16.0008 15.282 16.0008C15.3872 16.0008 15.4912 15.98 15.5883 15.9397C15.6854 15.8993 15.7735 15.8401 15.8476 15.7656C15.922 15.6914 15.981 15.6032 16.0212 15.5062C16.0615 15.4091 16.0822 15.3051 16.0822 15.2C16.0822 15.0949 16.0615 14.9909 16.0212 14.8938C15.981 14.7968 15.922 14.7086 15.8476 14.6344Z" fill="#007FFF"/>
</svg>
