<svg width="36" height="36" viewBox="0 0 36 36" fill="none" xmlns="http://www.w3.org/2000/svg">
<rect x="0.75" y="0.75" width="34.5" height="34.5" rx="3.25" fill="white"/>
<rect x="0.75" y="0.75" width="34.5" height="34.5" rx="3.25" stroke="#EDEFF2" stroke-width="1.5"/>
<mask id="mask0_813_7934" style="mask-type:alpha" maskUnits="userSpaceOnUse" x="10" y="10" width="16" height="16">
<rect x="10" y="10" width="16" height="16" fill="#D9D9D9"/>
</mask>
<g mask="url(#mask0_813_7934)">
<path d="M22.5669 15.7666L20.3169 13.5333L21.2003 12.6666C21.3891 12.4777 21.6254 12.3833 21.9089 12.3833C22.192 12.3833 22.428 12.4777 22.6169 12.6666L23.4336 13.4833C23.6225 13.6833 23.7225 13.9193 23.7336 14.1913C23.7447 14.4637 23.6503 14.6944 23.4503 14.8833L22.5669 15.7666ZM13.0336 23.6666C12.8669 23.6666 12.7254 23.6084 12.6089 23.492C12.492 23.3751 12.4336 23.2333 12.4336 23.0666V21.6666C12.4336 21.5889 12.4476 21.514 12.4756 21.442C12.5031 21.3695 12.5503 21.3 12.6169 21.2333L19.6003 14.25L21.8503 16.5L14.8669 23.4833C14.8003 23.55 14.7309 23.5973 14.6589 23.6253C14.5865 23.6529 14.5114 23.6666 14.4336 23.6666H13.0336Z" fill="#005BE5"/>
</g>
</svg>
