<svg width="32" height="32" viewBox="0 0 32 32" fill="none" xmlns="http://www.w3.org/2000/svg">
<rect x="0.75" y="0.75" width="30.5" height="30.5" rx="3.25" fill="white"/>
<rect x="0.75" y="0.75" width="30.5" height="30.5" rx="3.25" stroke="#DFE1E5" stroke-width="1.5"/>
<mask id="mask0_712_4920" style="mask-type:alpha" maskUnits="userSpaceOnUse" x="8" y="8" width="16" height="16">
<rect x="8" y="8" width="16" height="16" fill="#D9D9D9"/>
</mask>
<g mask="url(#mask0_712_4920)">
<path d="M13.9998 20.0002H17.9998C18.1887 20.0002 18.3472 19.9362 18.4752 19.8082C18.6027 19.6806 18.6665 19.5224 18.6665 19.3335C18.6665 19.1446 18.6027 18.9864 18.4752 18.8588C18.3472 18.7308 18.1887 18.6668 17.9998 18.6668H13.9998C13.8109 18.6668 13.6527 18.7308 13.5252 18.8588C13.3972 18.9864 13.3332 19.1446 13.3332 19.3335C13.3332 19.5224 13.3972 19.6806 13.5252 19.8082C13.6527 19.9362 13.8109 20.0002 13.9998 20.0002ZM13.9998 17.3335H17.9998C18.1887 17.3335 18.3472 17.2695 18.4752 17.1415C18.6027 17.0139 18.6665 16.8557 18.6665 16.6668C18.6665 16.4779 18.6027 16.3195 18.4752 16.1915C18.3472 16.0639 18.1887 16.0002 17.9998 16.0002H13.9998C13.8109 16.0002 13.6527 16.0639 13.5252 16.1915C13.3972 16.3195 13.3332 16.4779 13.3332 16.6668C13.3332 16.8557 13.3972 17.0139 13.5252 17.1415C13.6527 17.2695 13.8109 17.3335 13.9998 17.3335ZM11.9998 22.6668C11.6332 22.6668 11.3194 22.5364 11.0585 22.2755C10.7972 22.0142 10.6665 21.7002 10.6665 21.3335V10.6668C10.6665 10.3002 10.7972 9.98616 11.0585 9.72483C11.3194 9.46394 11.6332 9.3335 11.9998 9.3335H16.7832C16.9609 9.3335 17.1305 9.36683 17.2918 9.4335C17.4527 9.50016 17.5943 9.59461 17.7165 9.71683L20.9498 12.9502C21.0721 13.0724 21.1665 13.2139 21.2332 13.3748C21.2998 13.5362 21.3332 13.7057 21.3332 13.8835V21.3335C21.3332 21.7002 21.2027 22.0142 20.9418 22.2755C20.6805 22.5364 20.3665 22.6668 19.9998 22.6668H11.9998ZM16.6665 13.3335V10.6668H11.9998V21.3335H19.9998V14.0002H17.3332C17.1443 14.0002 16.9861 13.9362 16.8585 13.8082C16.7305 13.6806 16.6665 13.5224 16.6665 13.3335Z" fill="#B42427"/>
</g>
</svg>
