<svg width="32" height="32" viewBox="0 0 32 32" fill="none" xmlns="http://www.w3.org/2000/svg">
<rect x="0.75" y="0.75" width="30.5" height="30.5" rx="3.25" fill="white"/>
<rect x="0.75" y="0.75" width="30.5" height="30.5" rx="3.25" stroke="#DFE1E5" stroke-width="1.5"/>
<mask id="mask0_513_653" style="mask-type:alpha" maskUnits="userSpaceOnUse" x="8" y="8" width="16" height="16">
<rect x="8" y="8" width="16" height="16" fill="#D9D9D9"/>
</mask>
<g mask="url(#mask0_513_653)">
<path d="M12.6665 17.3333C12.2998 17.3333 11.9861 17.2027 11.7252 16.9413C11.4638 16.6804 11.3332 16.3667 11.3332 16C11.3332 15.6333 11.4638 15.3193 11.7252 15.058C11.9861 14.7971 12.2998 14.6667 12.6665 14.6667C13.0332 14.6667 13.3469 14.7971 13.6078 15.058C13.8692 15.3193 13.9998 15.6333 13.9998 16C13.9998 16.3667 13.8692 16.6804 13.6078 16.9413C13.3469 17.2027 13.0332 17.3333 12.6665 17.3333ZM12.6665 20C11.5554 20 10.6109 19.6111 9.83317 18.8333C9.05539 18.0556 8.6665 17.1111 8.6665 16C8.6665 14.8889 9.05539 13.9444 9.83317 13.1667C10.6109 12.3889 11.5554 12 12.6665 12C13.4109 12 14.0861 12.1833 14.6918 12.55C15.2972 12.9167 15.7776 13.4 16.1332 14H21.7165C21.8054 14 21.8916 14.0167 21.9752 14.05C22.0583 14.0833 22.1332 14.1333 22.1998 14.2L23.5332 15.5333C23.5998 15.6 23.6472 15.6722 23.6752 15.75C23.7027 15.8278 23.7165 15.9111 23.7165 16C23.7165 16.0889 23.7027 16.1722 23.6752 16.25C23.6472 16.3278 23.5998 16.4 23.5332 16.4667L21.4165 18.5833C21.3609 18.6389 21.2943 18.6833 21.2165 18.7167C21.1387 18.75 21.0609 18.7722 20.9832 18.7833C20.9054 18.7944 20.8276 18.7889 20.7498 18.7667C20.6721 18.7444 20.5998 18.7056 20.5332 18.65L19.6665 18L18.7165 18.7167C18.6609 18.7611 18.5998 18.7944 18.5332 18.8167C18.4665 18.8389 18.3998 18.85 18.3332 18.85C18.2665 18.85 18.1972 18.8389 18.1252 18.8167C18.0527 18.7944 17.9887 18.7611 17.9332 18.7167L16.9165 18H16.1332C15.7776 18.6 15.2972 19.0833 14.6918 19.45C14.0861 19.8167 13.4109 20 12.6665 20ZM12.6665 18.6667C13.2887 18.6667 13.8361 18.4778 14.3085 18.1C14.7805 17.7222 15.0943 17.2444 15.2498 16.6667H17.3332L18.2998 17.35L19.6665 16.3333L20.8498 17.25L22.0998 16L21.4332 15.3333H15.2498C15.0943 14.7556 14.7805 14.2778 14.3085 13.9C13.8361 13.5222 13.2887 13.3333 12.6665 13.3333C11.9332 13.3333 11.3054 13.5944 10.7832 14.1167C10.2609 14.6389 9.99984 15.2667 9.99984 16C9.99984 16.7333 10.2609 17.3611 10.7832 17.8833C11.3054 18.4056 11.9332 18.6667 12.6665 18.6667Z" fill="#B42427"/>
</g>
</svg>
