<svg width="16" height="16" viewBox="0 0 16 16" fill="none" xmlns="http://www.w3.org/2000/svg">
<mask id="mask0_352_56198" style="mask-type:alpha" maskUnits="userSpaceOnUse" x="0" y="0" width="16" height="16">
<rect width="16" height="16" fill="#D9D9D9"/>
</mask>
<g mask="url(#mask0_352_56198)">
<path d="M7.35272 9.97516L4.94913 7.57157C4.65639 7.27883 4.59106 6.94387 4.75315 6.56669C4.91462 6.1889 5.20336 6 5.61936 6H10.3803C10.7963 6 11.0851 6.1889 11.2465 6.56669C11.4086 6.94387 11.3433 7.27883 11.0505 7.57157L8.64696 9.97516C8.55451 10.0676 8.45436 10.1369 8.34651 10.1832C8.23866 10.2294 8.1231 10.2525 7.99984 10.2525C7.87658 10.2525 7.76102 10.2294 7.65317 10.1832C7.54531 10.1369 7.44516 10.0676 7.35272 9.97516Z" fill="#5C6370"/>
</g>
</svg>
