<svg width="32" height="32" viewBox="0 0 32 32" fill="none" xmlns="http://www.w3.org/2000/svg">
<rect width="32" height="32" rx="4" fill="white"/>
<mask id="mask0_513_314" style="mask-type:alpha" maskUnits="userSpaceOnUse" x="4" y="4" width="24" height="24">
<rect x="4" y="4" width="24" height="24" fill="#D9D9D9"/>
</mask>
<g mask="url(#mask0_513_314)">
<path d="M16.0005 24.0005C15.4505 24.0005 14.9798 23.8048 14.5885 23.4135C14.1965 23.0215 14.0005 22.5505 14.0005 22.0005C14.0005 21.4505 14.1965 20.9795 14.5885 20.5875C14.9798 20.1962 15.4505 20.0005 16.0005 20.0005C16.5505 20.0005 17.0215 20.1962 17.4135 20.5875C17.8048 20.9795 18.0005 21.4505 18.0005 22.0005C18.0005 22.5505 17.8048 23.0215 17.4135 23.4135C17.0215 23.8048 16.5505 24.0005 16.0005 24.0005ZM16.0005 18.0005C15.4505 18.0005 14.9798 17.8045 14.5885 17.4125C14.1965 17.0212 14.0005 16.5505 14.0005 16.0005C14.0005 15.4505 14.1965 14.9795 14.5885 14.5875C14.9798 14.1962 15.4505 14.0005 16.0005 14.0005C16.5505 14.0005 17.0215 14.1962 17.4135 14.5875C17.8048 14.9795 18.0005 15.4505 18.0005 16.0005C18.0005 16.5505 17.8048 17.0212 17.4135 17.4125C17.0215 17.8045 16.5505 18.0005 16.0005 18.0005ZM16.0005 12.0005C15.4505 12.0005 14.9798 11.8045 14.5885 11.4125C14.1965 11.0212 14.0005 10.5505 14.0005 10.0005C14.0005 9.45049 14.1965 8.97982 14.5885 8.58849C14.9798 8.19649 15.4505 8.00049 16.0005 8.00049C16.5505 8.00049 17.0215 8.19649 17.4135 8.58849C17.8048 8.97982 18.0005 9.45049 18.0005 10.0005C18.0005 10.5505 17.8048 11.0212 17.4135 11.4125C17.0215 11.8045 16.5505 12.0005 16.0005 12.0005Z" fill="#7E8695"/>
</g>
</svg>
