<svg width="36" height="36" viewBox="0 0 36 36" fill="none" xmlns="http://www.w3.org/2000/svg">
<rect width="36" height="36" rx="4" fill="white"/>
<mask id="mask0_776_5961" style="mask-type:alpha" maskUnits="userSpaceOnUse" x="10" y="10" width="16" height="16">
<rect x="10" y="10" width="16" height="16" fill="#D9D9D9"/>
</mask>
<g mask="url(#mask0_776_5961)">
<path d="M14.6666 24C14.3 24 13.9862 23.8696 13.7253 23.6087C13.464 23.3473 13.3333 23.0333 13.3333 22.6667V14C13.1444 14 12.986 13.9362 12.858 13.8087C12.7304 13.6807 12.6666 13.5222 12.6666 13.3333C12.6666 13.1444 12.7304 12.986 12.858 12.858C12.986 12.7304 13.1444 12.6667 13.3333 12.6667H16C16 12.4778 16.064 12.3193 16.192 12.1913C16.3195 12.0638 16.4777 12 16.6666 12H19.3333C19.5222 12 19.6806 12.0638 19.8086 12.1913C19.9362 12.3193 20 12.4778 20 12.6667H22.6666C22.8555 12.6667 23.0137 12.7304 23.1413 12.858C23.2693 12.986 23.3333 13.1444 23.3333 13.3333C23.3333 13.5222 23.2693 13.6807 23.1413 13.8087C23.0137 13.9362 22.8555 14 22.6666 14V22.6667C22.6666 23.0333 22.5362 23.3473 22.2753 23.6087C22.014 23.8696 21.7 24 21.3333 24H14.6666ZM14.6666 14V22.6667H21.3333V14H14.6666ZM16 20.6667C16 20.8556 16.064 21.0138 16.192 21.1413C16.3195 21.2693 16.4777 21.3333 16.6666 21.3333C16.8555 21.3333 17.014 21.2693 17.142 21.1413C17.2695 21.0138 17.3333 20.8556 17.3333 20.6667V16C17.3333 15.8111 17.2695 15.6527 17.142 15.5247C17.014 15.3971 16.8555 15.3333 16.6666 15.3333C16.4777 15.3333 16.3195 15.3971 16.192 15.5247C16.064 15.6527 16 15.8111 16 16V20.6667ZM18.6666 20.6667C18.6666 20.8556 18.7306 21.0138 18.8586 21.1413C18.9862 21.2693 19.1444 21.3333 19.3333 21.3333C19.5222 21.3333 19.6806 21.2693 19.8086 21.1413C19.9362 21.0138 20 20.8556 20 20.6667V16C20 15.8111 19.9362 15.6527 19.8086 15.5247C19.6806 15.3971 19.5222 15.3333 19.3333 15.3333C19.1444 15.3333 18.9862 15.3971 18.8586 15.5247C18.7306 15.6527 18.6666 15.8111 18.6666 16V20.6667Z" fill="#B42427"/>
</g>
</svg>
