<svg width="32" height="32" viewBox="0 0 32 32" fill="none" xmlns="http://www.w3.org/2000/svg">
<rect width="32" height="32" rx="4" fill="#F8F8F8"/>
<mask id="mask0_352_56203" style="mask-type:alpha" maskUnits="userSpaceOnUse" x="4" y="4" width="24" height="24">
<rect x="4" y="4" width="24" height="24" fill="#D9D9D9"/>
</mask>
<g mask="url(#mask0_352_56203)">
<path d="M12.6998 21.2998C12.5165 21.1165 12.4248 20.8831 12.4248 20.5998C12.4248 20.3165 12.5165 20.0831 12.6998 19.8998L16.5998 15.9998L12.6998 12.0998C12.5165 11.9165 12.4248 11.6831 12.4248 11.3998C12.4248 11.1165 12.5165 10.8831 12.6998 10.6998C12.8831 10.5165 13.1165 10.4248 13.3998 10.4248C13.6831 10.4248 13.9165 10.5165 14.0998 10.6998L18.6998 15.2998C18.7998 15.3998 18.8708 15.5081 18.9128 15.6248C18.9541 15.7415 18.9748 15.8665 18.9748 15.9998C18.9748 16.1331 18.9541 16.2581 18.9128 16.3748C18.8708 16.4915 18.7998 16.5998 18.6998 16.6998L14.0998 21.2998C13.9165 21.4831 13.6831 21.5748 13.3998 21.5748C13.1165 21.5748 12.8831 21.4831 12.6998 21.2998Z" fill="#5C6370"/>
</g>
</svg>
