<svg width="32" height="32" viewBox="0 0 32 32" fill="none" xmlns="http://www.w3.org/2000/svg">
<rect width="32" height="32" rx="4" fill="#F8F8F8"/>
<mask id="mask0_352_56202" style="mask-type:alpha" maskUnits="userSpaceOnUse" x="4" y="4" width="24" height="24">
<rect x="4" y="4" width="24" height="24" fill="#D9D9D9"/>
</mask>
<g mask="url(#mask0_352_56202)">
<path d="M17.2998 21.2998L12.6998 16.6998C12.5998 16.5998 12.5291 16.4915 12.4878 16.3748C12.4458 16.2581 12.4248 16.1331 12.4248 15.9998C12.4248 15.8665 12.4458 15.7415 12.4878 15.6248C12.5291 15.5081 12.5998 15.3998 12.6998 15.2998L17.2998 10.6998C17.4831 10.5165 17.7165 10.4248 17.9998 10.4248C18.2831 10.4248 18.5165 10.5165 18.6998 10.6998C18.8831 10.8831 18.9748 11.1165 18.9748 11.3998C18.9748 11.6831 18.8831 11.9165 18.6998 12.0998L14.7998 15.9998L18.6998 19.8998C18.8831 20.0831 18.9748 20.3165 18.9748 20.5998C18.9748 20.8831 18.8831 21.1165 18.6998 21.2998C18.5165 21.4831 18.2831 21.5748 17.9998 21.5748C17.7165 21.5748 17.4831 21.4831 17.2998 21.2998Z" fill="#5C6370"/>
</g>
</svg>
