<svg width="36" height="36" viewBox="0 0 36 36" fill="none" xmlns="http://www.w3.org/2000/svg">
<rect width="36" height="36" rx="4" fill="white"/>
<mask id="mask0_773_5958" style="mask-type:alpha" maskUnits="userSpaceOnUse" x="10" y="10" width="16" height="16">
<rect x="10" y="10" width="16" height="16" fill="#D9D9D9"/>
</mask>
<g mask="url(#mask0_773_5958)">
<path d="M17.9999 20.6665C18.8332 20.6665 19.5416 20.3749 20.1252 19.7918C20.7083 19.2083 20.9999 18.4998 20.9999 17.6665C20.9999 16.8332 20.7083 16.1247 20.1252 15.5412C19.5416 14.9581 18.8332 14.6665 17.9999 14.6665C17.1665 14.6665 16.4581 14.9581 15.8745 15.5412C15.2914 16.1247 14.9999 16.8332 14.9999 17.6665C14.9999 18.4998 15.2914 19.2083 15.8745 19.7918C16.4581 20.3749 17.1665 20.6665 17.9999 20.6665ZM17.9999 19.4665C17.4999 19.4665 17.075 19.2914 16.7252 18.9412C16.375 18.5914 16.1999 18.1665 16.1999 17.6665C16.1999 17.1665 16.375 16.7414 16.7252 16.3912C17.075 16.0414 17.4999 15.8665 17.9999 15.8665C18.4999 15.8665 18.925 16.0414 19.2752 16.3912C19.625 16.7414 19.7999 17.1665 19.7999 17.6665C19.7999 18.1665 19.625 18.5914 19.2752 18.9412C18.925 19.2914 18.4999 19.4665 17.9999 19.4665ZM17.9999 22.6665C16.4554 22.6665 15.0443 22.2583 13.7665 21.4418C12.4888 20.6249 11.5221 19.5221 10.8665 18.1332C10.8332 18.0776 10.811 18.0081 10.7999 17.9245C10.7888 17.8414 10.7832 17.7554 10.7832 17.6665C10.7832 17.5776 10.7888 17.4914 10.7999 17.4078C10.811 17.3247 10.8332 17.2554 10.8665 17.1998C11.5221 15.8109 12.4888 14.7083 13.7665 13.8918C15.0443 13.0749 16.4554 12.6665 17.9999 12.6665C19.5443 12.6665 20.9554 13.0749 22.2332 13.8918C23.511 14.7083 24.4776 15.8109 25.1332 17.1998C25.1665 17.2554 25.1888 17.3247 25.1999 17.4078C25.211 17.4914 25.2165 17.5776 25.2165 17.6665C25.2165 17.7554 25.211 17.8414 25.1999 17.9245C25.1888 18.0081 25.1665 18.0776 25.1332 18.1332C24.4776 19.5221 23.511 20.6249 22.2332 21.4418C20.9554 22.2583 19.5443 22.6665 17.9999 22.6665Z" fill="#B42427"/>
</g>
</svg>
