<svg width="32" height="32" viewBox="0 0 32 32" fill="none" xmlns="http://www.w3.org/2000/svg">
<rect x="0.75" y="0.75" width="30.5" height="30.5" rx="3.25" fill="white"/>
<rect x="0.75" y="0.75" width="30.5" height="30.5" rx="3.25" stroke="#DFE1E5" stroke-width="1.5"/>
<mask id="mask0_513_653" style="mask-type:alpha" maskUnits="userSpaceOnUse" x="8" y="8" width="16" height="16">
<rect x="8" y="8" width="16" height="16" fill="#D9D9D9"/>
</mask>
<g mask="url(#mask0_513_653)">
<path d="M20.5669 13.7666L18.3169 11.5333L19.2003 10.6666C19.3891 10.4777 19.6254 10.3833 19.9089 10.3833C20.192 10.3833 20.428 10.4777 20.6169 10.6666L21.4336 11.4833C21.6225 11.6833 21.7225 11.9193 21.7336 12.1913C21.7447 12.4637 21.6503 12.6944 21.4503 12.8833L20.5669 13.7666ZM11.0336 21.6666C10.8669 21.6666 10.7254 21.6084 10.6089 21.492C10.492 21.3751 10.4336 21.2333 10.4336 21.0666V19.6666C10.4336 19.5889 10.4476 19.514 10.4756 19.442C10.5031 19.3695 10.5503 19.3 10.6169 19.2333L17.6003 12.25L19.8503 14.5L12.8669 21.4833C12.8003 21.55 12.7309 21.5973 12.6589 21.6253C12.5865 21.6529 12.5114 21.6666 12.4336 21.6666H11.0336Z" fill="#B42427"/>
</g>
</svg>
