<svg width="36" height="36" viewBox="0 0 36 36" fill="none" xmlns="http://www.w3.org/2000/svg">
<rect x="0.75" y="0.75" width="34.5" height="34.5" rx="3.25" fill="white"/>
<rect x="0.75" y="0.75" width="34.5" height="34.5" rx="3.25" stroke="#EDEFF2" stroke-width="1.5"/>
<mask id="mask0_675_649" style="mask-type:alpha" maskUnits="userSpaceOnUse" x="10" y="10" width="16" height="16">
<rect x="10" y="10" width="16" height="16" fill="#D9D9D9"/>
</mask>
<g mask="url(#mask0_675_649)">
<path d="M14.6665 24C14.2998 24 13.9861 23.8696 13.7252 23.6087C13.4638 23.3473 13.3332 23.0333 13.3332 22.6667V14C13.1443 14 12.9858 13.9362 12.8578 13.8087C12.7303 13.6807 12.6665 13.5222 12.6665 13.3333C12.6665 13.1444 12.7303 12.986 12.8578 12.858C12.9858 12.7304 13.1443 12.6667 13.3332 12.6667H15.9998C15.9998 12.4778 16.0638 12.3193 16.1918 12.1913C16.3194 12.0638 16.4776 12 16.6665 12H19.3332C19.5221 12 19.6805 12.0638 19.8085 12.1913C19.9361 12.3193 19.9998 12.4778 19.9998 12.6667H22.6665C22.8554 12.6667 23.0136 12.7304 23.1412 12.858C23.2692 12.986 23.3332 13.1444 23.3332 13.3333C23.3332 13.5222 23.2692 13.6807 23.1412 13.8087C23.0136 13.9362 22.8554 14 22.6665 14V22.6667C22.6665 23.0333 22.5361 23.3473 22.2752 23.6087C22.0138 23.8696 21.6998 24 21.3332 24H14.6665ZM14.6665 14V22.6667H21.3332V14H14.6665ZM15.9998 20.6667C15.9998 20.8556 16.0638 21.0138 16.1918 21.1413C16.3194 21.2693 16.4776 21.3333 16.6665 21.3333C16.8554 21.3333 17.0138 21.2693 17.1418 21.1413C17.2694 21.0138 17.3332 20.8556 17.3332 20.6667V16C17.3332 15.8111 17.2694 15.6527 17.1418 15.5247C17.0138 15.3971 16.8554 15.3333 16.6665 15.3333C16.4776 15.3333 16.3194 15.3971 16.1918 15.5247C16.0638 15.6527 15.9998 15.8111 15.9998 16V20.6667ZM18.6665 20.6667C18.6665 20.8556 18.7305 21.0138 18.8585 21.1413C18.9861 21.2693 19.1443 21.3333 19.3332 21.3333C19.5221 21.3333 19.6805 21.2693 19.8085 21.1413C19.9361 21.0138 19.9998 20.8556 19.9998 20.6667V16C19.9998 15.8111 19.9361 15.6527 19.8085 15.5247C19.6805 15.3971 19.5221 15.3333 19.3332 15.3333C19.1443 15.3333 18.9861 15.3971 18.8585 15.5247C18.7305 15.6527 18.6665 15.8111 18.6665 16V20.6667Z" fill="#B42427"/>
</g>
</svg>
