<svg width="32" height="32" viewBox="0 0 32 32" fill="none" xmlns="http://www.w3.org/2000/svg">
<rect x="0.75" y="0.75" width="30.5" height="30.5" rx="3.25" fill="white"/>
<rect x="0.75" y="0.75" width="30.5" height="30.5" rx="3.25" stroke="#EDEFF2" stroke-width="1.5"/>
<mask id="mask0_513_649" style="mask-type:alpha" maskUnits="userSpaceOnUse" x="8" y="8" width="16" height="16">
<rect x="8" y="8" width="16" height="16" fill="#D9D9D9"/>
</mask>
<g mask="url(#mask0_513_649)">
<path d="M12.6665 22C12.2998 22 11.9861 21.8696 11.7252 21.6087C11.4638 21.3473 11.3332 21.0333 11.3332 20.6667V12C11.1443 12 10.9858 11.9362 10.8578 11.8087C10.7303 11.6807 10.6665 11.5222 10.6665 11.3333C10.6665 11.1444 10.7303 10.986 10.8578 10.858C10.9858 10.7304 11.1443 10.6667 11.3332 10.6667H13.9998C13.9998 10.4778 14.0638 10.3193 14.1918 10.1913C14.3194 10.0638 14.4776 10 14.6665 10H17.3332C17.5221 10 17.6805 10.0638 17.8085 10.1913C17.9361 10.3193 17.9998 10.4778 17.9998 10.6667H20.6665C20.8554 10.6667 21.0136 10.7304 21.1412 10.858C21.2692 10.986 21.3332 11.1444 21.3332 11.3333C21.3332 11.5222 21.2692 11.6807 21.1412 11.8087C21.0136 11.9362 20.8554 12 20.6665 12V20.6667C20.6665 21.0333 20.5361 21.3473 20.2752 21.6087C20.0138 21.8696 19.6998 22 19.3332 22H12.6665ZM12.6665 12V20.6667H19.3332V12H12.6665ZM13.9998 18.6667C13.9998 18.8556 14.0638 19.0138 14.1918 19.1413C14.3194 19.2693 14.4776 19.3333 14.6665 19.3333C14.8554 19.3333 15.0138 19.2693 15.1418 19.1413C15.2694 19.0138 15.3332 18.8556 15.3332 18.6667V14C15.3332 13.8111 15.2694 13.6527 15.1418 13.5247C15.0138 13.3971 14.8554 13.3333 14.6665 13.3333C14.4776 13.3333 14.3194 13.3971 14.1918 13.5247C14.0638 13.6527 13.9998 13.8111 13.9998 14V18.6667ZM16.6665 18.6667C16.6665 18.8556 16.7305 19.0138 16.8585 19.1413C16.9861 19.2693 17.1443 19.3333 17.3332 19.3333C17.5221 19.3333 17.6805 19.2693 17.8085 19.1413C17.9361 19.0138 17.9998 18.8556 17.9998 18.6667V14C17.9998 13.8111 17.9361 13.6527 17.8085 13.5247C17.6805 13.3971 17.5221 13.3333 17.3332 13.3333C17.1443 13.3333 16.9861 13.3971 16.8585 13.5247C16.7305 13.6527 16.6665 13.8111 16.6665 14V18.6667Z" fill="#B42427"/>
</g>
</svg>
