<svg width="36" height="36" viewBox="0 0 36 36" fill="none" xmlns="http://www.w3.org/2000/svg">
<rect x="0.75" y="0.75" width="34.5" height="34.5" rx="3.25" fill="white"/>
<rect x="0.75" y="0.75" width="34.5" height="34.5" rx="3.25" stroke="#EDEFF2" stroke-width="1.5"/>
<mask id="mask0_675_653" style="mask-type:alpha" maskUnits="userSpaceOnUse" x="10" y="10" width="16" height="16">
<rect x="10" y="10" width="16" height="16" fill="#D9D9D9"/>
</mask>
<g mask="url(#mask0_675_653)">
<path d="M15.9998 22.0002H19.9998C20.1887 22.0002 20.3472 21.9362 20.4752 21.8082C20.6027 21.6806 20.6665 21.5224 20.6665 21.3335C20.6665 21.1446 20.6027 20.9864 20.4752 20.8588C20.3472 20.7308 20.1887 20.6668 19.9998 20.6668H15.9998C15.8109 20.6668 15.6527 20.7308 15.5252 20.8588C15.3972 20.9864 15.3332 21.1446 15.3332 21.3335C15.3332 21.5224 15.3972 21.6806 15.5252 21.8082C15.6527 21.9362 15.8109 22.0002 15.9998 22.0002ZM15.9998 19.3335H19.9998C20.1887 19.3335 20.3472 19.2695 20.4752 19.1415C20.6027 19.0139 20.6665 18.8557 20.6665 18.6668C20.6665 18.4779 20.6027 18.3195 20.4752 18.1915C20.3472 18.0639 20.1887 18.0002 19.9998 18.0002H15.9998C15.8109 18.0002 15.6527 18.0639 15.5252 18.1915C15.3972 18.3195 15.3332 18.4779 15.3332 18.6668C15.3332 18.8557 15.3972 19.0139 15.5252 19.1415C15.6527 19.2695 15.8109 19.3335 15.9998 19.3335ZM13.9998 24.6668C13.6332 24.6668 13.3194 24.5364 13.0585 24.2755C12.7972 24.0142 12.6665 23.7002 12.6665 23.3335V12.6668C12.6665 12.3002 12.7972 11.9862 13.0585 11.7248C13.3194 11.4639 13.6332 11.3335 13.9998 11.3335H18.7832C18.9609 11.3335 19.1305 11.3668 19.2918 11.4335C19.4527 11.5002 19.5943 11.5946 19.7165 11.7168L22.9498 14.9502C23.0721 15.0724 23.1665 15.2139 23.2332 15.3748C23.2998 15.5362 23.3332 15.7057 23.3332 15.8835V23.3335C23.3332 23.7002 23.2027 24.0142 22.9418 24.2755C22.6805 24.5364 22.3665 24.6668 21.9998 24.6668H13.9998ZM18.6665 15.3335V12.6668H13.9998V23.3335H21.9998V16.0002H19.3332C19.1443 16.0002 18.9861 15.9362 18.8585 15.8082C18.7305 15.6806 18.6665 15.5224 18.6665 15.3335Z" fill="#B42427"/>
</g>
</svg>
